<?xml version="1.0" encoding="utf-8"?>
<!-- Generator: Adobe Illustrator 24.1.0, SVG Export Plug-In . SVG Version: 6.00 Build 0)  -->
<svg version="1.1" id="Layer_1" xmlns="http://www.w3.org/2000/svg" xmlns:xlink="http://www.w3.org/1999/xlink" x="0px" y="0px"
	 viewBox="0 0 340 100" style="enable-background:new 0 0 340 100;" xml:space="preserve">
<style type="text/css">
	.st0{fill:#D7DC4A;}
	.st1{fill:#353535;}
</style>
<g>
	<path class="st0" d="M41.67,0L41.67,0c-30.53,32.86-0.36,59.55,0,59.87l0,0C42.06,59.55,72.21,32.86,41.67,0z"/>
	<path class="st0" d="M82.95,16.49L82.95,16.49c-44.77,2.78-41.32,42.86-41.28,43.38l0,0C42.15,59.87,82.4,61.36,82.95,16.49z"/>
	<path class="st0" d="M62.81,3.84L62.81,3.84C22.63,23.82,41.44,59.42,41.67,59.87l0,0C42.12,59.68,79.76,45.38,62.81,3.84z"/>
	<path class="st0" d="M0,16.49L0,16.49c44.8,2.78,41.35,42.86,41.28,43.38l0,0C40.8,59.87,0.55,61.36,0,16.49z"/>
	<path class="st0" d="M20.17,3.84L20.17,3.84c40.15,19.98,21.37,55.58,21.11,56.03l0,0C40.83,59.68,3.2,45.38,20.17,3.84z"/>
</g>
<g>
	<path class="st1" d="M33.66,99.24V39.33h15.64v59.91H33.66z"/>
	<path class="st1" d="M99.01,39.33h14.62v59.91h-11.56L74.7,64.99v34.25H60.17V39.33h11.39l27.45,34.25V39.33z"/>
	<path class="st1" d="M177.53,65.41v30c-3.12,1.47-6.66,2.61-10.62,3.4c-3.97,0.79-8.02,1.19-12.15,1.19
		c-6.52,0-12.17-1.23-16.95-3.7c-4.79-2.46-8.45-6-11-10.62c-2.55-4.62-3.82-10.1-3.82-16.44c0-6.17,1.27-11.59,3.82-16.23
		c2.55-4.64,6.16-8.21,10.83-10.71c4.67-2.49,10.15-3.74,16.44-3.74c4.36,0,8.45,0.57,12.28,1.7c3.82,1.13,6.93,2.69,9.31,4.67
		l-4.84,11.05c-2.78-1.81-5.44-3.11-7.99-3.91c-2.55-0.79-5.27-1.19-8.16-1.19c-5.38,0-9.39,1.5-12.02,4.5
		c-2.63,3-3.95,7.62-3.95,13.85c0,6.4,1.37,11.15,4.12,14.23c2.75,3.09,6.95,4.63,12.62,4.63c2.72,0,5.41-0.28,8.07-0.85V76.12
		h-10.54V65.41H177.53z"/>
	<path class="st1" d="M187.72,99.24V39.33h42.57v12.07h-27.36v11.39h25.66v11.98h-25.66v12.41h27.36v12.07H187.72z"/>
	<path class="st1" d="M246.02,98.22c-4.36-1.19-7.9-2.78-10.62-4.76l4.84-11.05c2.89,1.81,5.98,3.2,9.26,4.16
		c3.28,0.96,6.6,1.44,9.94,1.44c3.4,0,5.99-0.47,7.78-1.4c1.78-0.94,2.68-2.25,2.68-3.95c0-1.53-0.81-2.77-2.42-3.74
		c-1.61-0.96-4.69-1.93-9.22-2.89c-5.61-1.19-10-2.61-13.17-4.25c-3.17-1.64-5.4-3.57-6.67-5.78c-1.27-2.21-1.91-4.93-1.91-8.16
		c0-3.68,1.03-6.98,3.1-9.9c2.07-2.92,4.98-5.21,8.75-6.88c3.77-1.67,8.09-2.51,12.96-2.51c4.3,0,8.48,0.61,12.53,1.83
		c4.05,1.22,7.21,2.79,9.48,4.72l-4.76,11.05c-5.44-3.74-11.16-5.61-17.17-5.61c-2.89,0-5.21,0.55-6.97,1.66
		c-1.76,1.1-2.63,2.56-2.63,4.38c0,1.08,0.31,1.95,0.94,2.63c0.62,0.68,1.78,1.35,3.48,2c1.7,0.65,4.22,1.32,7.56,2
		c5.44,1.19,9.72,2.62,12.83,4.29c3.11,1.67,5.32,3.61,6.63,5.82c1.3,2.21,1.95,4.84,1.95,7.9c0,5.89-2.27,10.49-6.8,13.81
		c-4.53,3.31-10.91,4.97-19.12,4.97C254.8,100,250.38,99.4,246.02,98.22z"/>
	<path class="st1" d="M306.26,99.24V51.99h-17.93V39.33H340v12.66h-17.93v47.25H306.26z"/>
</g>
</svg>
