<?xml version="1.0" encoding="UTF-8"?>
<svg width="45px" height="57px" viewBox="0 0 45 57" version="1.1" xmlns="http://www.w3.org/2000/svg" xmlns:xlink="http://www.w3.org/1999/xlink">
    <!-- Generator: Sketch 63.1 (92452) - https://sketch.com -->
    <title>Group</title>
    <desc>Created with Sketch.</desc>
    <g id="Page-1" stroke="none" stroke-width="1" fill="none" fill-rule="evenodd">
        <g id="Tablet---Influencer" transform="translate(-136.000000, -851.000000)">
            <g id="Group-7-Copy-6" transform="translate(30.000000, 851.000000)">
                <g id="Group" transform="translate(106.000000, 0.000000)">
                    <polygon id="Rectangle" fill="#6EB308" points="0 0 45 0 45 57 22.5 48.6431843 0 57"></polygon>
                    <path d="M6.996,23 L6.996,19.328 L11.328,19.328 L11.328,23 L12.84,23 L12.84,14.54 L11.328,14.54 L11.328,18.08 L6.996,18.08 L6.996,14.54 L5.472,14.54 L5.472,23 L6.996,23 Z M16.104,15.884 L16.104,14.408 L14.448,14.408 L14.448,15.884 L16.104,15.884 Z M16.032,23 L16.032,17.132 L14.532,17.132 L14.532,23 L16.032,23 Z M20.28,25.256 C21.272,25.256 22.022,25.02 22.53,24.548 C23.038,24.076 23.292,23.38 23.292,22.46 L23.292,22.46 L23.292,17.132 L21.804,17.132 L21.804,18.02 C21.628,17.692 21.372,17.438 21.036,17.258 C20.7,17.078 20.316,16.988 19.884,16.988 C19.372,16.988 18.916,17.11 18.516,17.354 C18.116,17.598 17.806,17.942 17.586,18.386 C17.366,18.83 17.256,19.34 17.256,19.916 C17.256,20.492 17.368,21 17.592,21.44 C17.816,21.88 18.126,22.222 18.522,22.466 C18.918,22.71 19.372,22.832 19.884,22.832 C20.316,22.832 20.7,22.742 21.036,22.562 C21.372,22.382 21.628,22.128 21.804,21.8 L21.804,21.8 L21.804,22.568 C21.804,23.592 21.284,24.104 20.244,24.104 C19.468,24.104 18.716,23.884 17.988,23.444 L17.988,23.444 L17.568,24.5 C17.92,24.74 18.332,24.926 18.804,25.058 C19.276,25.19 19.768,25.256 20.28,25.256 Z M20.28,21.668 C19.808,21.668 19.436,21.51 19.164,21.194 C18.892,20.878 18.756,20.452 18.756,19.916 C18.756,19.364 18.892,18.932 19.164,18.62 C19.436,18.308 19.808,18.152 20.28,18.152 C20.76,18.152 21.134,18.308 21.402,18.62 C21.67,18.932 21.804,19.364 21.804,19.916 C21.804,20.46 21.67,20.888 21.402,21.2 C21.134,21.512 20.76,21.668 20.28,21.668 Z M26.34,23 L26.34,19.676 C26.34,19.22 26.47,18.856 26.73,18.584 C26.99,18.312 27.336,18.176 27.768,18.176 C28.136,18.176 28.406,18.28 28.578,18.488 C28.75,18.696 28.836,19.028 28.836,19.484 L28.836,19.484 L28.836,23 L30.336,23 L30.336,19.4 C30.336,18.592 30.164,17.988 29.82,17.588 C29.476,17.188 28.952,16.988 28.248,16.988 C27.84,16.988 27.47,17.07 27.138,17.234 C26.806,17.398 26.54,17.636 26.34,17.948 L26.34,17.948 L26.34,14.54 L24.84,14.54 L24.84,23 L26.34,23 Z M33.36,23 L33.36,14.54 L31.86,14.54 L31.86,23 L33.36,23 Z M36.972,25.16 L40.5,17.144 L39.024,17.144 L37.32,21.284 L35.664,17.144 L34.08,17.144 L36.528,22.772 L35.46,25.16 L36.972,25.16 Z M12.378,37 L12.378,29.812 L15.138,29.812 L15.138,28.54 L8.07,28.54 L8.07,29.812 L10.83,29.812 L10.83,37 L12.378,37 Z M17.562,37 L17.562,33.832 C17.562,32.928 18.058,32.424 19.05,32.32 L19.05,32.32 L19.926,32.236 L19.83,30.976 L19.374,31.012 C18.422,31.076 17.794,31.46 17.49,32.164 L17.49,32.164 L17.49,31.132 L16.062,31.132 L16.062,37 L17.562,37 Z M22.782,37.096 C23.174,37.096 23.526,37.01 23.838,36.838 C24.15,36.666 24.398,36.42 24.582,36.1 L24.582,36.1 L24.582,37 L26.046,37 L26.046,31.132 L24.546,31.132 L24.546,34.396 C24.546,34.852 24.42,35.218 24.168,35.494 C23.916,35.77 23.582,35.908 23.166,35.908 C22.806,35.908 22.542,35.808 22.374,35.608 C22.206,35.408 22.122,35.1 22.122,34.684 L22.122,34.684 L22.122,31.132 L20.622,31.132 L20.622,34.672 C20.622,36.288 21.342,37.096 22.782,37.096 Z M29.766,37.096 C30.518,37.096 31.114,36.936 31.554,36.616 C31.994,36.296 32.214,35.864 32.214,35.32 C32.214,34.872 32.078,34.51 31.806,34.234 C31.534,33.958 31.106,33.756 30.522,33.628 L30.522,33.628 L29.526,33.4 C29.27,33.344 29.084,33.264 28.968,33.16 C28.852,33.056 28.794,32.924 28.794,32.764 C28.794,32.548 28.886,32.38 29.07,32.26 C29.254,32.14 29.51,32.08 29.838,32.08 C30.446,32.08 31.054,32.3 31.662,32.74 L31.662,32.74 L32.082,31.72 C31.786,31.488 31.444,31.308 31.056,31.18 C30.668,31.052 30.266,30.988 29.85,30.988 C29.37,30.988 28.948,31.064 28.584,31.216 C28.22,31.368 27.936,31.582 27.732,31.858 C27.528,32.134 27.426,32.452 27.426,32.812 C27.426,33.244 27.558,33.596 27.822,33.868 C28.086,34.14 28.49,34.336 29.034,34.456 L29.034,34.456 L29.994,34.672 C30.314,34.752 30.536,34.84 30.66,34.936 C30.784,35.032 30.846,35.168 30.846,35.344 C30.846,35.552 30.756,35.712 30.576,35.824 C30.396,35.936 30.134,35.992 29.79,35.992 C28.982,35.992 28.266,35.764 27.642,35.308 L27.642,35.308 L27.222,36.352 C27.526,36.592 27.896,36.776 28.332,36.904 C28.768,37.032 29.246,37.096 29.766,37.096 Z M36.246,37.084 C36.446,37.084 36.666,37.072 36.906,37.048 L36.906,37.048 L36.978,35.932 C36.786,35.956 36.602,35.968 36.426,35.968 C35.698,35.968 35.334,35.576 35.334,34.792 L35.334,34.792 L35.334,32.26 L36.882,32.26 L36.882,31.132 L35.334,31.132 L35.334,29.38 L33.834,29.38 L33.834,31.132 L32.706,31.132 L32.706,32.26 L33.834,32.26 L33.834,34.816 C33.834,35.568 34.03,36.134 34.422,36.514 C34.814,36.894 35.422,37.084 36.246,37.084 Z" id="HighlyTrust" fill="#FFFFFF" fill-rule="nonzero"></path>
                </g>
            </g>
        </g>
    </g>
</svg>