<?xml version="1.0" encoding="UTF-8"?>
<svg width="45px" height="57px" viewBox="0 0 45 57" version="1.1" xmlns="http://www.w3.org/2000/svg" xmlns:xlink="http://www.w3.org/1999/xlink">
    <!-- Generator: Sketch 63.1 (92452) - https://sketch.com -->
    <title>Group</title>
    <desc>Created with Sketch.</desc>
    <g id="Page-1" stroke="none" stroke-width="1" fill="none" fill-rule="evenodd">
        <g id="Tablet---Influencer" transform="translate(-318.000000, -851.000000)">
            <g id="Group-7-Copy-4" transform="translate(212.000000, 851.000000)">
                <g id="Group" transform="translate(106.000000, 0.000000)">
                    <polygon id="Rectangle" fill="#E28500" points="0 0 45 0 45 57 22.5 48.6431843 0 57"></polygon>
                    <path d="M5.586,30 L5.586,22.812 L8.346,22.812 L8.346,21.54 L1.278,21.54 L1.278,22.812 L4.038,22.812 L4.038,30 L5.586,30 Z M10.77,30 L10.77,26.832 C10.77,25.928 11.266,25.424 12.258,25.32 L12.258,25.32 L13.134,25.236 L13.038,23.976 L12.582,24.012 C11.63,24.076 11.002,24.46 10.698,25.164 L10.698,25.164 L10.698,24.132 L9.27,24.132 L9.27,30 L10.77,30 Z M15.99,30.096 C16.382,30.096 16.734,30.01 17.046,29.838 C17.358,29.666 17.606,29.42 17.79,29.1 L17.79,29.1 L17.79,30 L19.254,30 L19.254,24.132 L17.754,24.132 L17.754,27.396 C17.754,27.852 17.628,28.218 17.376,28.494 C17.124,28.77 16.79,28.908 16.374,28.908 C16.014,28.908 15.75,28.808 15.582,28.608 C15.414,28.408 15.33,28.1 15.33,27.684 L15.33,27.684 L15.33,24.132 L13.83,24.132 L13.83,27.672 C13.83,29.288 14.55,30.096 15.99,30.096 Z M22.974,30.096 C23.726,30.096 24.322,29.936 24.762,29.616 C25.202,29.296 25.422,28.864 25.422,28.32 C25.422,27.872 25.286,27.51 25.014,27.234 C24.742,26.958 24.314,26.756 23.73,26.628 L23.73,26.628 L22.734,26.4 C22.478,26.344 22.292,26.264 22.176,26.16 C22.06,26.056 22.002,25.924 22.002,25.764 C22.002,25.548 22.094,25.38 22.278,25.26 C22.462,25.14 22.718,25.08 23.046,25.08 C23.654,25.08 24.262,25.3 24.87,25.74 L24.87,25.74 L25.29,24.72 C24.994,24.488 24.652,24.308 24.264,24.18 C23.876,24.052 23.474,23.988 23.058,23.988 C22.578,23.988 22.156,24.064 21.792,24.216 C21.428,24.368 21.144,24.582 20.94,24.858 C20.736,25.134 20.634,25.452 20.634,25.812 C20.634,26.244 20.766,26.596 21.03,26.868 C21.294,27.14 21.698,27.336 22.242,27.456 L22.242,27.456 L23.202,27.672 C23.522,27.752 23.744,27.84 23.868,27.936 C23.992,28.032 24.054,28.168 24.054,28.344 C24.054,28.552 23.964,28.712 23.784,28.824 C23.604,28.936 23.342,28.992 22.998,28.992 C22.19,28.992 21.474,28.764 20.85,28.308 L20.85,28.308 L20.43,29.352 C20.734,29.592 21.104,29.776 21.54,29.904 C21.976,30.032 22.454,30.096 22.974,30.096 Z M29.454,30.084 C29.654,30.084 29.874,30.072 30.114,30.048 L30.114,30.048 L30.186,28.932 C29.994,28.956 29.81,28.968 29.634,28.968 C28.906,28.968 28.542,28.576 28.542,27.792 L28.542,27.792 L28.542,25.26 L30.09,25.26 L30.09,24.132 L28.542,24.132 L28.542,22.38 L27.042,22.38 L27.042,24.132 L25.914,24.132 L25.914,25.26 L27.042,25.26 L27.042,27.816 C27.042,28.568 27.238,29.134 27.63,29.514 C28.022,29.894 28.63,30.084 29.454,30.084 Z M33.846,30.096 C34.262,30.096 34.676,30.028 35.088,29.892 C35.5,29.756 35.842,29.576 36.114,29.352 L36.114,29.352 L35.682,28.32 C35.146,28.736 34.554,28.944 33.906,28.944 C33.386,28.944 32.986,28.812 32.706,28.548 C32.426,28.284 32.262,27.88 32.214,27.336 L32.214,27.336 L36.21,27.336 L36.21,26.916 C36.21,26.004 35.976,25.288 35.508,24.768 C35.04,24.248 34.402,23.988 33.594,23.988 C33.042,23.988 32.548,24.116 32.112,24.372 C31.676,24.628 31.338,24.988 31.098,25.452 C30.858,25.916 30.738,26.448 30.738,27.048 C30.738,27.992 31.016,28.736 31.572,29.28 C32.128,29.824 32.886,30.096 33.846,30.096 Z M34.926,26.532 L32.214,26.532 C32.27,26.052 32.42,25.684 32.664,25.428 C32.908,25.172 33.23,25.044 33.63,25.044 C34.03,25.044 34.342,25.17 34.566,25.422 C34.79,25.674 34.91,26.044 34.926,26.532 L34.926,26.532 Z M39.714,30.096 C40.138,30.096 40.516,30.004 40.848,29.82 C41.18,29.636 41.434,29.38 41.61,29.052 L41.61,29.052 L41.61,30 L43.098,30 L43.098,21.54 L41.598,21.54 L41.598,24.996 C41.422,24.676 41.17,24.428 40.842,24.252 C40.514,24.076 40.138,23.988 39.714,23.988 C39.202,23.988 38.75,24.112 38.358,24.36 C37.966,24.608 37.66,24.96 37.44,25.416 C37.22,25.872 37.11,26.404 37.11,27.012 C37.11,27.62 37.22,28.158 37.44,28.626 C37.66,29.094 37.968,29.456 38.364,29.712 C38.76,29.968 39.21,30.096 39.714,30.096 Z M40.11,28.932 C39.638,28.932 39.27,28.764 39.006,28.428 C38.742,28.092 38.61,27.62 38.61,27.012 C38.61,26.412 38.742,25.952 39.006,25.632 C39.27,25.312 39.642,25.152 40.122,25.152 C40.594,25.152 40.96,25.314 41.22,25.638 C41.48,25.962 41.61,26.428 41.61,27.036 C41.61,27.644 41.48,28.112 41.22,28.44 C40.96,28.768 40.59,28.932 40.11,28.932 Z" id="Trusted" fill="#FFFFFF" fill-rule="nonzero"></path>
                </g>
            </g>
        </g>
    </g>
</svg>